<svg width="30.000000" height="30.000000" viewBox="0 0 30 30" fill="none" xmlns="http://www.w3.org/2000/svg" xmlns:xlink="http://www.w3.org/1999/xlink">
	<desc>
			Created with Pixso.
	</desc>
	<defs/>
	<path id="Shape" d="M15 0C10.9263 0 10.4163 0.0175781 8.81628 0.0898438C3.36877 0.339844 0.341309 3.3623 0.0913086 8.81494C0.0174561 10.416 0 10.9263 0 15C0 19.0737 0.0174561 19.585 0.0899658 21.1851C0.339966 26.6323 3.36255 29.6602 8.81494 29.9102C10.4163 29.9824 10.9263 30 15 30C19.0737 30 19.585 29.9824 21.1851 29.9102C26.6274 29.6602 29.6625 26.6377 29.9087 21.1851C29.9825 19.585 30 19.0737 30 15C30 10.9263 29.9825 10.416 29.91 8.81641C29.665 3.37354 26.6388 0.341309 21.1863 0.0913086C19.585 0.0175781 19.0737 0 15 0ZM21.0626 2.7915C19.4801 2.71875 19.0051 2.7041 15.0001 2.7041C10.9951 2.7041 10.5214 2.71875 8.93884 2.79004C4.87012 2.9751 2.97644 4.90527 2.79016 8.93896C2.71887 10.5215 2.70264 10.9951 2.70264 15C2.70264 19.0063 2.71765 19.48 2.79016 21.0615C2.9751 25.0874 4.86389 27.0249 8.93884 27.2114C10.5201 27.2837 10.9951 27.2988 15.0001 27.2988C19.0077 27.2988 19.4801 27.2837 21.0626 27.2114C25.1313 27.0264 27.0251 25.0938 27.2114 21.0625C27.2826 19.4814 27.2976 19.0078 27.2976 15.0015C27.2976 10.9966 27.2839 10.5215 27.2114 8.93994C27.0264 4.90527 25.1277 2.97656 21.0626 2.7915ZM21.2061 6.99365C21.2061 5.99951 22.0123 5.19336 23.0073 5.19336C24.0011 5.19336 24.806 5.99951 24.806 6.99365C24.806 7.9873 24.0011 8.79346 23.0073 8.79346C22.0123 8.79346 21.2061 7.9873 21.2061 6.99365ZM7.29736 15C7.29736 10.7461 10.7461 7.29736 14.9999 7.29736C19.2537 7.29736 22.7024 10.7461 22.7024 15C22.7024 19.2549 19.2537 22.7036 14.9999 22.7036C10.7461 22.7036 7.29736 19.2534 7.29736 15ZM15 20C12.2388 20 10 17.7627 10 15C10 12.2388 12.2388 10 15 10C17.7612 10 20 12.2388 20 15C20 17.7627 17.7612 20 15 20Z" clip-rule="evenodd" fill="#333333" fill-opacity="1.000000" fill-rule="evenodd"/>
</svg>
