<svg width="235.000000" height="24.000000" viewBox="0 0 235 24" fill="none" xmlns="http://www.w3.org/2000/svg" xmlns:xlink="http://www.w3.org/1999/xlink">
	<desc>
			Created with Pixso.
	</desc>
	<defs/>
	<path id="coffeeroasters" d="M42.6593 23.2397C41.6814 23.7135 40.5405 23.9504 39.2366 23.9504Q37.2968 23.9504 35.7362 23.181L35.7352 23.1805Q35.6311 23.1292 35.5287 23.0744Q34.861 22.7173 34.3084 22.2297Q33.5053 21.5212 32.9453 20.5372Q32 18.876 32 16.4959Q32 14.3689 32.8451 12.6598Q32.9129 12.5228 32.9861 12.3884Q33.4992 11.4466 34.222 10.7106Q34.8881 10.0323 35.7324 9.52892Q35.8161 9.47899 35.9012 9.43142Q37.6043 8.47934 39.8397 8.47934Q41.8444 8.47934 43.2216 9.07438Q44.5989 9.66942 45.3242 10.686Q45.6752 11.178 45.8564 11.7261Q46.0495 12.3105 46.0495 12.9587Q46.0495 14.0671 45.517 14.7748L45.5169 14.7749Q45.4141 14.9114 45.2916 15.0331Q45.1584 15.1652 45.0083 15.2742Q44.3045 15.7851 43.2298 15.7851Q42.0858 15.7851 41.4135 15.222Q41.3004 15.1272 41.2006 15.0165C40.7388 14.5041 40.5079 13.8017 40.5079 12.9091L40.5079 11.8512Q40.5079 11.0413 40.2145 10.6281C40.019 10.3526 39.7419 10.2149 39.3833 10.2149Q39.2324 10.2149 39.0898 10.2494Q38.7243 10.3378 38.4135 10.6529C38.1256 10.9449 37.9028 11.3829 37.7453 11.9669Q37.5089 12.843 37.5089 14.1322C37.5089 15.3664 37.691 16.4022 38.055 17.2397C38.419 18.0771 38.9161 18.7052 39.5463 19.124Q39.8488 19.3249 40.1779 19.4616Q40.8775 19.7521 41.6977 19.7521C42.5018 19.7521 43.1755 19.6336 43.7188 19.3967C44.262 19.1598 44.6804 18.7603 44.9737 18.1983C45.1367 18.0441 45.2644 17.9449 45.3568 17.9008C45.4491 17.8568 45.5388 17.8347 45.6257 17.8347C45.7344 17.8457 45.824 17.8981 45.8946 17.9917C45.9558 18.0729 45.9864 18.1934 45.9864 18.3532C45.9864 18.3778 45.9857 18.4033 45.9843 18.4298C45.8973 19.5096 45.5659 20.4628 44.99 21.2893C44.4142 22.1157 43.6373 22.7658 42.6593 23.2397ZM59.2269 22.9091C58.0045 23.5813 56.5838 23.9174 54.9648 23.9174Q52.6015 23.9174 50.8168 22.9339Q49.8107 22.3794 49.0557 21.586Q48.4716 20.972 48.0379 20.2149Q48.0056 20.1584 47.9743 20.1014Q47.0437 18.4052 47.0437 16.1983Q47.0437 14.5693 47.6252 13.1844Q47.8225 12.7145 48.0868 12.2727C48.7822 11.1102 49.7438 10.1873 50.9717 9.50413Q51.0118 9.48179 51.0522 9.45994Q52.8656 8.47934 55.2093 8.47934Q57.5889 8.47934 59.3655 9.47107C60.5499 10.1322 61.4734 11.0468 62.1362 12.2149C62.7991 13.3829 63.1305 14.7328 63.1305 16.2645C63.1305 17.719 62.7855 19.022 62.0955 20.1736C61.4055 21.3251 60.4493 22.2369 59.2269 22.9091ZM56.2035 22.1983C55.8667 22.2645 55.538 22.1157 55.2175 21.7521C54.8969 21.3884 54.5927 20.7769 54.3047 19.9174Q53.8728 18.6281 53.4817 16.5289C53.2317 15.1295 53.0905 13.978 53.0579 13.0744C53.0525 12.9238 53.0497 12.7793 53.0497 12.6409Q53.0497 11.6033 53.2535 11.0248C53.4165 10.562 53.6664 10.292 54.0032 10.2149C54.34 10.1488 54.6687 10.2975 54.9893 10.6612C55.3098 11.0248 55.6168 11.6364 55.9102 12.4959C56.2035 13.3554 56.4806 14.4848 56.7414 15.8843C57.0022 17.2837 57.1461 18.438 57.1733 19.3471C57.1771 19.4734 57.179 19.5953 57.179 19.713C57.179 20.4424 57.1064 21.0064 56.9614 21.405C56.793 21.8678 56.5404 22.1322 56.2035 22.1983ZM74.7514 22.8595C74.7514 23.3664 74.4961 23.6198 73.9854 23.6198L64.9885 23.6198C64.7712 23.6198 64.5946 23.5565 64.4588 23.4298C64.323 23.303 64.2551 23.124 64.2551 22.8926C64.2551 22.6942 64.3013 22.5344 64.3936 22.4132C64.486 22.292 64.6299 22.1928 64.8255 22.1157L65.5264 21.9008Q65.6559 21.8598 65.7573 21.782Q65.86 21.7032 65.9338 21.5868C66.0316 21.4325 66.0805 21.2121 66.0805 20.9256L66.0805 11.3719C66.0805 11.2176 66.0425 11.0882 65.9664 10.9835C65.8904 10.8788 65.7491 10.7824 65.5427 10.6942L64.5974 10.3802C64.3474 10.259 64.1682 10.1295 64.0595 9.99174Q64.0231 9.94557 63.9948 9.89487Q63.8965 9.71865 63.8965 9.4876C63.8965 9.28926 63.9644 9.12672 64.1002 9L64.1536 8.95545C64.2837 8.85843 64.4534 8.80992 64.6625 8.80992L66.0928 8.80992L66.0815 8.71333C66.051 8.52015 65.9746 8.33471 65.8523 8.15702C65.6894 7.92011 65.5046 7.65289 65.2982 7.35537Q64.9885 6.90909 64.744 6.28926Q64.4996 5.66942 64.4996 4.76033Q64.4996 3.3597 65.1133 2.32215Q65.4484 1.75573 65.9664 1.29752C66.9444 0.432507 68.3352 0 70.1389 0C71.3015 0 72.2659 0.187328 73.0319 0.561985C73.798 0.936638 74.3711 1.43526 74.7514 2.05785C75.1317 2.68044 75.3219 3.36088 75.3219 4.09917Q75.3219 5.35881 74.6925 6.01088Q74.6694 6.03477 74.6455 6.05785C74.1945 6.49311 73.616 6.71074 72.9097 6.71074C72.1273 6.71074 71.4971 6.4573 71.019 5.95041C70.5409 5.44353 70.3019 4.77135 70.3019 3.93388L70.3019 2.46281Q70.3019 1.8843 70.0737 1.61157C69.9216 1.42975 69.688 1.33884 69.3729 1.33884C68.9708 1.33884 68.6666 1.47659 68.4601 1.75207C68.2537 2.02755 68.1505 2.42424 68.1505 2.94215C68.1505 3.47107 68.2727 3.96694 68.5172 4.42975Q68.5206 4.43626 68.5241 4.44276Q68.8889 5.12962 69.4218 5.72727C69.7803 6.12948 70.1389 6.51515 70.4975 6.8843Q71.0353 7.43801 71.402 7.9752L71.4717 8.08256Q71.6698 8.40438 71.7358 8.72322L71.7507 8.80992L74.1647 8.80992Q74.5395 8.80992 74.7433 8.96694C74.8791 9.07162 74.947 9.23416 74.947 9.45454C74.947 9.78513 74.8058 10.0551 74.5232 10.2645C74.2407 10.4738 73.7952 10.5785 73.1868 10.5785L72.0295 10.5785L72.0295 20.876C72.0295 21.1846 72.0757 21.4215 72.1681 21.5868C72.2604 21.7521 72.4099 21.8512 72.6163 21.8843L74.018 22.0992C74.2679 22.1322 74.4526 22.2121 74.5721 22.3388C74.6917 22.4656 74.7514 22.6391 74.7514 22.8595ZM86.1279 22.8595C86.1279 23.3664 85.8726 23.6198 85.3619 23.6198L76.365 23.6198C76.1477 23.6198 75.9711 23.5565 75.8353 23.4298C75.6995 23.303 75.6316 23.124 75.6316 22.8926C75.6316 22.6942 75.6777 22.5344 75.7701 22.4132C75.8625 22.292 76.0064 22.1928 76.202 22.1157L76.9028 21.9008Q77.0324 21.8598 77.1338 21.782Q77.2365 21.7032 77.3103 21.5868C77.4081 21.4325 77.457 21.2121 77.457 20.9256L77.457 11.3719C77.457 11.2176 77.419 11.0882 77.3429 10.9835C77.2669 10.8788 77.1256 10.7824 76.9192 10.6942L75.9738 10.3802C75.7239 10.259 75.5446 10.1295 75.436 9.99174Q75.3996 9.94557 75.3713 9.89487Q75.273 9.71865 75.273 9.4876C75.273 9.28926 75.3409 9.12672 75.4767 9L75.5301 8.95545C75.6602 8.85843 75.8299 8.80992 76.039 8.80992L77.4692 8.80992L77.458 8.71333C77.4275 8.52015 77.3511 8.33471 77.2288 8.15702C77.0658 7.92011 76.8811 7.65289 76.6747 7.35537Q76.365 6.90909 76.1205 6.28926Q75.876 5.66942 75.876 4.76033Q75.876 3.3597 76.4898 2.32215Q76.8249 1.75573 77.3429 1.29752C78.3208 0.432507 79.7117 0 81.5154 0C82.678 0 83.6423 0.187328 84.4084 0.561985C85.1744 0.936638 85.7476 1.43526 86.1279 2.05785C86.5082 2.68044 86.6984 3.36088 86.6984 4.09917C86.6984 4.9697 86.4729 5.62259 86.022 6.05785C85.571 6.49311 84.9924 6.71074 84.2861 6.71074C83.5038 6.71074 82.8736 6.4573 82.3955 5.95041C81.9174 5.44353 81.6784 4.77135 81.6784 3.93388L81.6784 2.46281Q81.6784 1.8843 81.4502 1.61157C81.2981 1.42975 81.0645 1.33884 80.7493 1.33884C80.3473 1.33884 80.0431 1.47659 79.8366 1.75207C79.6302 2.02755 79.5269 2.42424 79.5269 2.94215C79.5269 3.47107 79.6492 3.96694 79.8937 4.42975Q79.8971 4.43622 79.9005 4.44268Q80.2654 5.12959 80.7982 5.72727C81.1568 6.12948 81.5154 6.51515 81.8739 6.8843Q82.4118 7.43801 82.7785 7.9752L82.8482 8.08256Q83.0462 8.40438 83.1122 8.72322L83.1271 8.80992L85.5412 8.80992Q85.916 8.80992 86.1198 8.96694C86.2556 9.07162 86.3235 9.23416 86.3235 9.45454C86.3235 9.78513 86.1822 10.0551 85.8997 10.2645C85.6172 10.4738 85.1717 10.5785 84.5632 10.5785L83.406 10.5785L83.406 20.876C83.406 21.1846 83.4522 21.4215 83.5446 21.5868C83.6369 21.7521 83.7863 21.8512 83.9928 21.8843L85.3945 22.0992C85.6444 22.1322 85.8291 22.2121 85.9486 22.3388C86.0681 22.4656 86.1279 22.6391 86.1279 22.8595ZM98.1237 23.1405C97.0697 23.6804 95.8528 23.9504 94.4728 23.9504C92.9516 23.9504 91.6151 23.6336 90.4633 23C89.3116 22.3664 88.4124 21.4793 87.7659 20.3388C87.1194 19.1983 86.7961 17.8788 86.7961 16.3802C86.7961 14.8044 87.1085 13.4242 87.7333 12.2397C88.3581 11.0551 89.2627 10.1322 90.4471 9.47107C91.6314 8.80992 93.0548 8.47934 94.7173 8.47934C96.1299 8.47934 97.3468 8.75758 98.3682 9.31405C99.3896 9.87052 100.175 10.6253 100.723 11.5785Q100.952 11.9749 101.117 12.3961Q101.546 13.494 101.546 14.7603C101.546 15.2672 101.411 15.6667 101.139 15.9587L101.074 16.0235C100.806 16.2723 100.437 16.3967 99.9655 16.3967L92.5147 16.3967L92.5307 16.4729C92.7284 17.3804 93.0661 18.1071 93.5438 18.6529C94.3587 19.584 95.4453 20.0496 96.8035 20.0496C97.6728 20.0496 98.4416 19.8512 99.1098 19.4545C99.778 19.0578 100.226 18.5069 100.454 17.8017C100.585 17.6584 100.702 17.562 100.805 17.5124C100.908 17.4628 100.998 17.438 101.074 17.438C101.182 17.438 101.275 17.4821 101.351 17.5702C101.427 17.6584 101.465 17.8072 101.465 18.0165C101.465 19.0964 101.172 20.0854 100.585 20.9835C99.9981 21.8815 99.1777 22.6006 98.1237 23.1405ZM92.3447 15.0717Q92.3214 14.6914 92.3214 14.281C92.3214 13.2452 92.3975 12.4298 92.5496 11.8347C92.7017 11.2397 92.8973 10.8182 93.1363 10.5702C93.3754 10.3223 93.6416 10.1983 93.935 10.1983C94.3153 10.1983 94.6711 10.5234 95.0025 11.1736Q95.4996 12.1488 95.4996 14.4132C95.4996 14.876 95.2932 15.1074 94.8803 15.1074L92.3467 15.1074L92.3447 15.0717ZM113.705 23.1405C112.651 23.6804 111.434 23.9504 110.054 23.9504C108.533 23.9504 107.197 23.6336 106.045 23C104.893 22.3664 103.994 21.4793 103.347 20.3388C102.701 19.1983 102.378 17.8788 102.378 16.3802C102.378 14.8044 102.69 13.4242 103.315 12.2397C103.94 11.0551 104.844 10.1322 106.029 9.47107C107.213 8.80992 108.636 8.47934 110.299 8.47934C111.711 8.47934 112.928 8.75758 113.95 9.31405C114.971 9.87052 115.756 10.6253 116.305 11.5785C116.854 12.5317 117.128 13.5923 117.128 14.7603C117.128 15.2672 116.992 15.6667 116.721 15.9587L116.656 16.0235C116.388 16.2723 116.018 16.3967 115.547 16.3967L108.096 16.3967L108.112 16.4729C108.31 17.3804 108.648 18.1071 109.125 18.6529Q109.572 19.1628 110.126 19.4865Q111.091 20.0496 112.385 20.0496C113.254 20.0496 114.023 19.8512 114.691 19.4545C115.36 19.0578 115.808 18.5069 116.036 17.8017C116.166 17.6584 116.283 17.562 116.386 17.5124C116.49 17.4628 116.579 17.438 116.655 17.438C116.764 17.438 116.856 17.4821 116.932 17.5702C117.008 17.6584 117.046 17.8072 117.046 18.0165C117.046 19.0964 116.753 20.0854 116.166 20.9835C115.58 21.8815 114.759 22.6006 113.705 23.1405ZM107.926 15.0717Q107.903 14.6914 107.903 14.281C107.903 13.2452 107.979 12.4298 108.131 11.8347C108.283 11.2397 108.479 10.8182 108.718 10.5702Q108.988 10.2904 109.304 10.2211Q109.408 10.1983 109.517 10.1983C109.897 10.1983 110.253 10.5234 110.584 11.1736C110.915 11.8237 111.081 12.9036 111.081 14.4132Q111.081 14.7998 110.889 14.9711Q110.736 15.1074 110.462 15.1074L107.928 15.1074L107.926 15.0717ZM127.6 23.4132C127.464 23.551 127.266 23.6198 127.005 23.6198L118.856 23.6198C118.617 23.6198 118.429 23.5537 118.293 23.4215C118.158 23.2893 118.09 23.1074 118.09 22.876C118.09 22.6997 118.13 22.5537 118.212 22.438Q118.334 22.2645 118.546 22.1157L118.921 21.9669Q119.033 21.9142 119.109 21.8288Q119.176 21.7535 119.214 21.6529C119.269 21.5096 119.296 21.2727 119.296 20.9421L119.296 12.5455C119.296 12.281 119.266 12.0909 119.206 11.9752C119.146 11.8595 119.046 11.7686 118.905 11.7025L118.481 11.6529C118.329 11.5647 118.217 11.4711 118.147 11.3719C118.076 11.2727 118.041 11.146 118.041 10.9917C118.041 10.8154 118.095 10.6584 118.204 10.5207C118.312 10.3829 118.497 10.2645 118.758 10.1653L123.387 8.82645C123.658 8.71626 123.887 8.63912 124.071 8.59504Q124.348 8.52893 124.544 8.52893C124.729 8.52893 124.867 8.59504 124.959 8.72727L124.989 8.77523C125.065 8.91344 125.118 9.13437 125.147 9.43801L125.271 12.0064L125.299 11.9116C125.354 11.7327 125.415 11.5611 125.481 11.3967C125.878 10.4105 126.402 9.67768 127.054 9.19835Q127.662 8.751 128.34 8.58198Q128.752 8.47934 129.189 8.47934C130.123 8.47934 130.841 8.79339 131.34 9.42149C131.84 10.0496 132.09 11.0028 132.09 12.281Q132.09 14.1818 131.308 15.0744C130.786 15.6694 130.113 15.9669 129.287 15.9669Q128.098 15.9669 127.519 15.3727Q127.51 15.3641 127.502 15.3554C127.116 14.9477 126.913 14.3691 126.891 13.6198L126.875 12.9587C126.864 12.7052 126.815 12.5069 126.728 12.3636C126.641 12.2204 126.5 12.1488 126.304 12.1488C126.109 12.1488 125.937 12.2507 125.791 12.4545C125.644 12.6584 125.533 12.9697 125.457 13.3884Q125.342 14.0165 125.342 14.9917L125.342 20.8099C125.342 21.1185 125.391 21.3636 125.489 21.5455C125.587 21.7273 125.739 21.8402 125.946 21.8843L127.168 22.1322Q127.49 22.1789 127.639 22.3643Q127.648 22.3761 127.657 22.3884Q127.69 22.4354 127.716 22.4862Q127.804 22.6589 127.804 22.876C127.804 23.0964 127.736 23.2755 127.6 23.4132ZM144.893 22.9091C143.67 23.5813 142.25 23.9174 140.631 23.9174C139.055 23.9174 137.672 23.5895 136.483 22.9339Q135.477 22.3794 134.722 21.586Q134.137 20.972 133.704 20.2149Q133.671 20.1585 133.64 20.1015Q132.71 18.4052 132.71 16.1983C132.71 14.7438 133.057 13.4353 133.753 12.2727C134.448 11.1102 135.41 10.1873 136.637 9.50413Q136.678 9.48177 136.718 9.4599Q138.532 8.47934 140.875 8.47934C142.462 8.47934 143.847 8.80992 145.031 9.47107C146.216 10.1322 147.139 11.0468 147.802 12.2149Q147.827 12.2596 147.852 12.3046Q148.796 14.0255 148.796 16.2645C148.796 17.719 148.451 19.022 147.761 20.1736C147.071 21.3251 146.115 22.2369 144.893 22.9091ZM141.869 22.1983C141.533 22.2645 141.204 22.1157 140.883 21.7521C140.563 21.3884 140.259 20.7769 139.971 19.9174Q139.539 18.6281 139.147 16.5289C138.898 15.1295 138.756 13.978 138.724 13.0744Q138.716 12.8485 138.716 12.641C138.716 11.9492 138.783 11.4105 138.919 11.0248C139.082 10.562 139.332 10.292 139.669 10.2149C140.006 10.1488 140.335 10.2975 140.655 10.6612C140.976 11.0248 141.283 11.6364 141.576 12.4959Q142.016 13.7851 142.407 15.8843C142.668 17.2837 142.812 18.438 142.839 19.3471C142.843 19.4734 142.845 19.5953 142.845 19.713C142.845 20.4424 142.772 21.0064 142.627 21.405C142.459 21.8678 142.206 22.1322 141.869 22.1983ZM163.97 23.4463C163.384 23.7824 162.634 23.9504 161.721 23.9504C160.624 23.9504 159.773 23.7163 159.17 23.2479L159.067 23.1642C158.733 22.8813 158.504 22.5612 158.379 22.2039L158.355 22.1299L158.332 22.1586C157.935 22.6493 157.418 23.0455 156.783 23.3471C155.935 23.7493 155.022 23.9504 154.044 23.9504Q152.286 23.9504 151.153 23.1082Q151.026 23.0139 150.907 22.9091C150.119 22.2149 149.725 21.3278 149.725 20.2479C149.725 18.8264 150.299 17.719 151.445 16.9256C152.591 16.1322 154.332 15.7355 156.669 15.7355L156.844 15.7373C157.189 15.7446 157.493 15.7735 157.755 15.8241L157.842 15.843L157.842 11.0248C157.842 10.6391 157.752 10.3333 157.573 10.1074C157.394 9.88154 157.152 9.76859 156.848 9.76859C156.565 9.76859 156.329 9.854 156.139 10.0248C155.949 10.1956 155.854 10.4353 155.854 10.7438L155.854 12Q155.854 12.781 155.521 13.3767Q155.333 13.7139 155.039 13.9917C154.495 14.5041 153.751 14.7603 152.806 14.7603Q151.649 14.7603 151.037 14.2066C150.63 13.8375 150.426 13.3003 150.426 12.595Q150.426 12.5352 150.429 12.4755Q150.476 11.546 151.249 10.6529C151.798 10.0193 152.618 9.49862 153.71 9.09091C154.802 8.6832 156.163 8.47934 157.793 8.47934Q160.939 8.47934 162.414 9.67768C163.397 10.4766 163.889 11.6033 163.889 13.0578L163.889 20.3636C163.889 20.573 163.935 20.741 164.027 20.8678C164.12 20.9945 164.258 21.0578 164.443 21.0578Q164.51 21.0578 164.574 21.0443Q164.697 21.0183 164.81 20.9421C164.924 20.865 165.008 20.7273 165.062 20.5289C165.095 20.4848 165.133 20.4518 165.176 20.4298C165.22 20.4077 165.269 20.3967 165.323 20.3967Q165.395 20.3967 165.455 20.4234Q165.545 20.4631 165.608 20.562C165.679 20.6722 165.714 20.8099 165.714 20.9752C165.714 21.3609 165.57 21.7851 165.282 22.2479C164.994 22.7107 164.557 23.1102 163.97 23.4463ZM157.158 21.3719C156.723 21.3719 156.372 21.1928 156.106 20.8347C155.84 20.4766 155.707 19.9284 155.707 19.1901C155.707 18.4187 155.835 17.8347 156.09 17.438C156.345 17.0413 156.685 16.843 157.109 16.843C157.359 16.843 157.576 16.8678 157.761 16.9174L157.842 16.9422L157.842 21.1837L157.789 21.2137C157.615 21.3041 157.436 21.3558 157.251 21.3687L157.158 21.3719ZM177.661 22.6612C176.629 23.5537 175.146 24 173.212 24Q172.234 24 171.59 23.8182C171.161 23.697 170.813 23.5758 170.547 23.4545C170.281 23.3333 170.066 23.2727 169.903 23.2727C169.74 23.2727 169.525 23.3333 169.259 23.4545L168.461 23.8182Q168.061 24 167.784 24C167.621 24 167.469 23.9449 167.328 23.8347C167.187 23.7245 167.078 23.5041 167.002 23.1736L166.497 19.8843C166.438 19.6331 166.409 19.4056 166.409 19.202C166.409 19.0662 166.422 18.9411 166.448 18.8264C166.513 18.5399 166.66 18.3526 166.888 18.2645C167.127 18.1543 167.363 18.1488 167.597 18.2479C167.83 18.3471 168.04 18.5234 168.224 18.7769C168.844 19.7355 169.403 20.4904 169.903 21.0413C170.403 21.5923 170.889 21.9807 171.362 22.2066C171.834 22.4325 172.332 22.5455 172.853 22.5455C173.407 22.5455 173.82 22.4132 174.092 22.1488C174.363 21.8843 174.499 21.5482 174.499 21.1405C174.499 20.832 174.421 20.551 174.263 20.2975C174.105 20.0441 173.817 19.8099 173.399 19.595C172.981 19.3802 172.38 19.168 171.598 18.9587C170.392 18.6501 169.392 18.2479 168.599 17.7521C167.806 17.2562 167.217 16.6612 166.831 15.9669C166.445 15.2727 166.252 14.4628 166.252 13.5372C166.252 12.4904 166.51 11.5895 167.026 10.8347C167.542 10.0799 168.249 9.49862 169.145 9.09091Q170.49 8.47934 172.169 8.47934C172.842 8.47934 173.391 8.54546 173.815 8.67768C174.239 8.80992 174.567 8.94215 174.801 9.07438C175.034 9.20661 175.211 9.27273 175.331 9.27273C175.461 9.27273 175.654 9.20937 175.909 9.08265C176.164 8.95592 176.423 8.83195 176.683 8.71074Q177.074 8.52893 177.335 8.52893C177.531 8.52893 177.688 8.59504 177.808 8.72727C177.927 8.8595 178.009 9.0854 178.052 9.40496L178.476 12.4463C178.521 12.7034 178.543 12.9258 178.543 13.1136C178.543 13.2477 178.531 13.3641 178.509 13.4628C178.454 13.6997 178.313 13.8512 178.085 13.9174Q178.053 13.9251 178.02 13.9295Q177.772 13.9633 177.498 13.8099C177.292 13.6942 177.085 13.5096 176.879 13.2562C176.086 12.0551 175.36 11.2066 174.703 10.7107C174.046 10.2149 173.348 9.96694 172.609 9.96694Q171.81 9.96694 171.403 10.314C171.131 10.5455 170.995 10.8485 170.995 11.2231C170.995 11.4766 171.055 11.7135 171.174 11.9339Q171.354 12.2645 171.834 12.5537C172.155 12.7466 172.609 12.9366 173.195 13.124C174.771 13.6088 175.993 14.124 176.863 14.6694C177.732 15.2149 178.34 15.8402 178.688 16.5455C179.036 17.2507 179.21 18.0716 179.21 19.0083C179.21 20.551 178.694 21.7686 177.661 22.6612ZM188.663 23.3802Q187.587 23.9504 186.12 23.9504C184.469 23.9504 183.227 23.5482 182.396 22.7438C181.565 21.9394 181.149 20.6722 181.149 18.9422L181.149 11.4711C181.149 11.2397 181.127 11.0634 181.084 10.9421C181.041 10.8209 180.932 10.7218 180.758 10.6446L179.992 10.3967C179.807 10.3085 179.688 10.2011 179.633 10.0744C179.579 9.94766 179.552 9.79063 179.552 9.60331C179.552 9.3719 179.633 9.18182 179.796 9.03306C179.959 8.8843 180.16 8.80992 180.399 8.80992L181.198 8.80992Q181.345 8.80992 181.508 8.69421C181.616 8.61708 181.763 8.46281 181.948 8.23141L184.963 5.70248Q185.289 5.30579 185.615 5.09917Q185.941 4.89256 186.267 4.89256C186.517 4.89256 186.712 4.9697 186.854 5.12397L186.898 5.17865C187.01 5.3332 187.066 5.55739 187.066 5.85124L187.065 8.80992L190.472 8.80992C190.711 8.80992 190.896 8.86226 191.026 8.96694C191.157 9.07162 191.222 9.23416 191.222 9.45454C191.222 9.76308 191.086 10.0275 190.814 10.2479L190.754 10.2935C190.48 10.4835 190.065 10.5785 189.51 10.5785L187.065 10.5785L187.066 18.1157C187.066 18.9422 187.204 19.5537 187.481 19.9504C187.758 20.3471 188.163 20.5455 188.695 20.5455C188.924 20.5455 189.136 20.4959 189.331 20.3967C189.527 20.2975 189.703 20.168 189.861 20.0083C190.018 19.8485 190.168 19.6694 190.309 19.4711C190.45 19.2727 190.586 19.0744 190.717 18.876C190.825 18.832 190.92 18.8512 191.002 18.9339C191.074 19.0068 191.11 19.1462 191.11 19.3521C191.11 19.3796 191.109 19.4082 191.108 19.438C191.032 20.3306 190.784 21.1157 190.366 21.7934C189.948 22.4711 189.38 23 188.663 23.3802ZM202.989 23.1405C201.935 23.6804 200.718 23.9504 199.339 23.9504C197.817 23.9504 196.481 23.6336 195.329 23C194.177 22.3664 193.278 21.4793 192.632 20.3388C191.985 19.1983 191.662 17.8788 191.662 16.3802Q191.662 14.0165 192.599 12.2397C193.224 11.0551 194.128 10.1322 195.313 9.47107Q197.089 8.47934 199.583 8.47934C200.996 8.47934 202.212 8.75758 203.234 9.31405Q204.288 9.88843 205.007 10.7446Q205.332 11.1326 205.589 11.5785C206.138 12.5317 206.412 13.5923 206.412 14.7603C206.412 15.2672 206.276 15.6667 206.005 15.9587L205.94 16.0235C205.672 16.2723 205.303 16.3967 204.831 16.3967L197.38 16.3967L197.396 16.4729C197.594 17.3804 197.932 18.1071 198.409 18.6529Q198.856 19.1628 199.411 19.4865Q200.376 20.0496 201.669 20.0496C202.538 20.0496 203.307 19.8512 203.975 19.4545C204.644 19.0578 205.092 18.5069 205.32 17.8017C205.451 17.6584 205.567 17.562 205.671 17.5124C205.774 17.4628 205.863 17.438 205.939 17.438C206.048 17.438 206.14 17.4821 206.217 17.5702C206.293 17.6584 206.331 17.8072 206.331 18.0165C206.331 19.0964 206.037 20.0854 205.451 20.9835C204.864 21.8815 204.043 22.6006 202.989 23.1405ZM197.21 15.0717Q197.187 14.6914 197.187 14.281C197.187 13.2452 197.263 12.4298 197.415 11.8347C197.567 11.2397 197.763 10.8182 198.002 10.5702C198.241 10.3223 198.507 10.1983 198.801 10.1983C199.181 10.1983 199.537 10.5234 199.868 11.1736C200.2 11.8237 200.365 12.9036 200.365 14.4132C200.365 14.876 200.159 15.1074 199.746 15.1074L197.212 15.1074L197.21 15.0717ZM216.884 23.4132C216.748 23.551 216.55 23.6198 216.289 23.6198L208.14 23.6198C207.901 23.6198 207.713 23.5537 207.577 23.4215C207.442 23.2893 207.374 23.1074 207.374 22.876C207.374 22.6997 207.414 22.5537 207.496 22.438Q207.618 22.2645 207.83 22.1157L208.205 21.9669Q208.318 21.9142 208.393 21.8289Q208.46 21.7536 208.498 21.6529C208.553 21.5096 208.58 21.2727 208.58 20.9421L208.58 12.5455C208.58 12.281 208.55 12.0909 208.49 11.9752Q208.482 11.9587 208.472 11.9428Q208.38 11.7922 208.189 11.7025L207.765 11.6529C207.613 11.5647 207.501 11.4711 207.431 11.3719C207.36 11.2727 207.325 11.146 207.325 10.9917C207.325 10.8154 207.379 10.6584 207.488 10.5207C207.596 10.3829 207.781 10.2645 208.042 10.1653L212.671 8.82645Q213.078 8.66116 213.355 8.59504C213.54 8.55096 213.698 8.52893 213.828 8.52893C214.013 8.52893 214.151 8.59504 214.244 8.72727L214.273 8.77523C214.349 8.91344 214.402 9.13437 214.431 9.43801L214.555 12.0069L214.583 11.9116C214.638 11.7327 214.699 11.5611 214.765 11.3967Q215.36 9.91735 216.338 9.19835C216.99 8.71901 217.702 8.47934 218.473 8.47934C219.408 8.47934 220.125 8.79339 220.625 9.42149C221.124 10.0496 221.374 11.0028 221.374 12.281C221.374 13.5482 221.114 14.4793 220.592 15.0744C220.07 15.6694 219.397 15.9669 218.571 15.9669C217.767 15.9669 217.172 15.7631 216.786 15.3554C216.4 14.9477 216.197 14.3691 216.175 13.6198L216.159 12.9587C216.148 12.7052 216.099 12.5069 216.012 12.3636C215.925 12.2204 215.784 12.1488 215.588 12.1488C215.393 12.1488 215.222 12.2507 215.075 12.4545C214.928 12.6584 214.817 12.9697 214.741 13.3884C214.665 13.8072 214.627 14.3416 214.627 14.9917L214.627 20.8099C214.627 21.1185 214.676 21.3636 214.773 21.5455C214.871 21.7273 215.023 21.8402 215.23 21.8843L216.452 22.1322C216.68 22.1653 216.843 22.2507 216.941 22.3884C217.039 22.5262 217.088 22.6887 217.088 22.876C217.088 23.0964 217.02 23.2755 216.884 23.4132ZM233.452 22.6612C232.419 23.5537 230.936 24 229.002 24Q228.024 24 227.38 23.8182C226.951 23.697 226.603 23.5758 226.337 23.4545C226.071 23.3333 225.856 23.2727 225.693 23.2727C225.53 23.2727 225.316 23.3333 225.05 23.4545L224.251 23.8182Q223.852 24 223.575 24C223.412 24 223.26 23.9449 223.118 23.8347C222.977 23.7245 222.868 23.5041 222.792 23.1736L222.287 19.8843C222.228 19.6331 222.199 19.4056 222.199 19.202C222.199 19.0662 222.212 18.9411 222.238 18.8264C222.303 18.5399 222.45 18.3526 222.678 18.2645C222.917 18.1543 223.154 18.1488 223.387 18.2479C223.621 18.3471 223.83 18.5234 224.015 18.7769C224.634 19.7355 225.194 20.4904 225.693 21.0413C226.193 21.5923 226.68 21.9807 227.152 22.2066C227.625 22.4325 228.122 22.5455 228.644 22.5455C229.198 22.5455 229.611 22.4132 229.882 22.1488C230.154 21.8843 230.29 21.5482 230.29 21.1405C230.29 20.832 230.211 20.551 230.053 20.2975C229.896 20.0441 229.608 19.8099 229.19 19.595C228.771 19.3802 228.171 19.168 227.389 18.9587C226.182 18.6501 225.183 18.2479 224.39 17.7521C223.596 17.2562 223.007 16.6612 222.621 15.9669C222.235 15.2727 222.043 14.4628 222.043 13.5372C222.043 12.4904 222.301 11.5895 222.817 10.8347C223.333 10.0799 224.039 9.49862 224.936 9.09091Q226.28 8.47934 227.959 8.47934C228.633 8.47934 229.181 8.54546 229.605 8.67768C230.029 8.80992 230.358 8.94215 230.591 9.07438C230.825 9.20661 231.001 9.27273 231.121 9.27273C231.251 9.27273 231.444 9.20937 231.7 9.08265C231.955 8.95592 232.213 8.83195 232.474 8.71074Q232.865 8.52893 233.126 8.52893C233.321 8.52893 233.479 8.59504 233.598 8.72727C233.718 8.8595 233.799 9.0854 233.843 9.40496L234.267 12.4463C234.311 12.7034 234.333 12.9258 234.333 13.1136C234.333 13.2477 234.322 13.3641 234.299 13.4628C234.245 13.6997 234.104 13.8512 233.875 13.9174Q233.843 13.9251 233.81 13.9295Q233.562 13.9633 233.289 13.8099C233.082 13.6942 232.876 13.5096 232.669 13.2562C231.876 12.0551 231.151 11.2066 230.493 10.7107C229.836 10.2149 229.138 9.96694 228.399 9.96694Q227.6 9.96694 227.193 10.314C226.921 10.5455 226.785 10.8485 226.785 11.2231C226.785 11.4766 226.845 11.7135 226.965 11.9339Q227.144 12.2645 227.625 12.5537C227.945 12.7466 228.399 12.9366 228.986 13.124C230.561 13.6088 231.784 14.124 232.653 14.6694C233.522 15.2149 234.131 15.8402 234.478 16.5455C234.826 17.2507 235 18.0716 235 19.0083C235 20.551 234.484 21.7686 233.452 22.6612Z" clip-rule="evenodd" fill="#555555" fill-opacity="1.000000" fill-rule="evenodd"/>
	<path id="Combined Shape" d="M13.4893 3.00268C9.97493 -0.508873 4.76554 -1.01438 1.87661 1.87766C-1.01382 4.76821 -0.508339 9.97779 3.00008 13.4908C3.93607 14.4269 5.01454 15.1424 6.15302 15.6554C6.5265 13.4848 7.59748 11.3983 9.22345 9.68528C8.68496 9.49328 8.13297 9.33128 7.55698 9.17377C4.14606 8.23776 2.4511 5.39222 2.05511 2.05617C3.01808 3.21418 3.72757 4.5387 4.90654 5.50922C6.16351 6.54424 7.54798 6.91924 9.06745 7.36024C9.75594 7.55975 10.3544 7.85526 10.9034 8.20026C12.3464 7.14574 13.9738 6.44373 15.6538 6.15423C15.1423 5.01571 14.4253 3.93869 13.4893 3.00268ZM7.54648 16.4894C7.76997 14.3158 8.82295 12.1903 10.5104 10.5028C14.0248 6.99124 19.2342 6.48423 22.1232 9.37778C25.0136 12.2683 24.5096 17.4779 20.9967 20.991C19.3092 22.6785 17.1838 23.7315 15.0103 23.9565C14.7208 23.985 14.4343 24 14.1538 24C12.2849 24 10.6154 23.3445 9.38544 22.1145C7.96947 20.7 7.31548 18.7019 7.54648 16.4894ZM16.4413 16.6754C15.0853 17.0459 13.8388 17.3939 12.6869 18.2729C11.3699 19.2794 10.6049 20.6834 9.56243 21.936C9.94343 18.6524 11.5934 15.8309 14.9308 14.8619C16.4518 14.4209 17.8347 14.0443 19.0917 13.0108C20.2722 12.0403 20.9817 10.7173 21.9432 9.55778C21.5457 12.8938 19.8522 15.7394 16.4413 16.6754Z" clip-rule="evenodd" fill="#0A775F" fill-opacity="1.000000" fill-rule="evenodd"/>
</svg>
