<svg width="30.000000" height="30.000000" viewBox="0 0 30 30" fill="none" xmlns="http://www.w3.org/2000/svg" xmlns:xlink="http://www.w3.org/1999/xlink">
	<desc>
			Created with Pixso.
	</desc>
	<defs/>
	<path id="Shape" d="M15 0C10.9263 0 10.416 0.0175781 8.81641 0.0900879C3.36865 0.340088 0.341309 3.36255 0.0913086 8.81494C0.0175781 10.4163 0 10.9263 0 15C0 19.0737 0.0175781 19.585 0.0898438 21.1851C0.339844 26.6326 3.3623 29.6599 8.81494 29.9099C10.416 29.9824 10.9263 30 15 30C19.0737 30 19.585 29.9824 21.1851 29.9099C26.6274 29.6599 29.6626 26.6375 29.9087 21.1851C29.9824 19.585 30 19.0737 30 15C30 10.9263 29.9824 10.4163 29.9102 8.81616C29.665 3.37378 26.6387 0.341309 21.186 0.0913086C19.585 0.0175781 19.0737 0 15 0ZM21.0625 2.79126C19.48 2.71875 19.0054 2.70386 15 2.70386C10.9951 2.70386 10.5215 2.71875 8.93896 2.79004C4.87012 2.9751 2.97656 4.90503 2.79004 8.93896C2.71875 10.5212 2.70264 10.9951 2.70264 15C2.70264 19.0063 2.71777 19.4802 2.79004 21.0613C2.9751 25.0876 4.86377 27.0251 8.93896 27.2114C10.52 27.2839 10.9951 27.2988 15 27.2988C19.0078 27.2988 19.48 27.2839 21.0625 27.2114C25.1313 27.0264 27.0249 25.0938 27.2114 21.0625C27.2827 19.4814 27.2979 19.0076 27.2979 15.0015C27.2979 10.9963 27.2837 10.5212 27.2114 8.94019C27.0264 4.90503 25.1274 2.97632 21.0625 2.79126ZM21.2061 6.99341C21.2061 5.99976 22.0122 5.19336 23.0073 5.19336C24.001 5.19336 24.8062 5.99976 24.8062 6.99341C24.8062 7.9873 24.001 8.79346 23.0073 8.79346C22.0122 8.79346 21.2061 7.9873 21.2061 6.99341ZM7.29736 14.9998C7.29736 10.7461 10.7461 7.29736 15 7.29736C19.2534 7.29736 22.7021 10.7461 22.7021 14.9998C22.7021 19.2549 19.2534 22.7036 15 22.7036C10.7461 22.7036 7.29736 19.2537 7.29736 14.9998ZM15 20C12.2388 20 10 17.7625 10 15C10 12.2388 12.2388 10 15 10C17.7612 10 20 12.2388 20 15C20 17.7625 17.7612 20 15 20Z" clip-rule="evenodd" fill="#333333" fill-opacity="1.000000" fill-rule="evenodd"/>
</svg>
