<svg width="120.000244" height="143.000000" viewBox="0 0 120 143" fill="none" xmlns="http://www.w3.org/2000/svg" xmlns:xlink="http://www.w3.org/1999/xlink">
	<desc>
			Created with Pixso.
	</desc>
	<defs/>
	<path id="Combined Shape" d="M16.3372 17.1812C16.6067 17.3591 16.8269 17.4482 17.0881 17.6262C17.3247 17.9744 17.3655 18.363 17.3411 18.7434C17.3411 18.7676 17.3574 18.8081 17.3574 18.8325C17.3208 19.2322 17.1926 19.6421 17.0684 20.0396C16.8049 20.8818 16.5586 21.6694 17.2351 22.1917C17.751 22.593 18.2717 22.9846 18.7871 23.3718C23.7908 27.1331 28.2629 30.4949 22.4175 38.4944C20.6614 40.8994 23.0916 40.9229 25.2637 40.9436C26.5645 40.9563 27.7727 40.968 27.9346 41.4893C27.8235 44.7827 25.416 45.7532 23.3237 46.5967C21.2659 47.4263 19.5125 48.1331 20.5486 50.8062C22.0005 54.5559 23.697 52.9241 25.4158 51.2708C26.209 50.5078 27.0068 49.7402 27.7876 49.4949C27.9917 49.4382 29.0037 50.6606 28.9302 51.1704C27.6904 59.2278 30.8462 58.0583 34.2839 56.7847C36.0959 56.1133 37.9863 55.4128 39.3523 56.0193C32.6355 65.6841 36.0063 68.323 46.7466 66.9226C56.6592 65.6284 58.5957 74.179 59.9502 80.1599C60.146 81.0239 60.3293 81.8342 60.5232 82.5535C62.9062 91.4495 54.2307 90.3972 48.0933 89.6121C46.0203 89.353 42.4292 89.7739 43.5229 91.2632C44.3745 92.4199 43.6409 93.7246 42.9558 94.9429C42.0063 96.6318 41.1499 98.1548 44.739 98.8884C51.2681 100.232 49.2766 103.559 46.3958 106.659C41.2866 112.18 42.2007 116.948 49.0481 119.4C51.3252 120.226 53.5288 121.213 58.793 123.383C48.6135 122.956 43.8799 128.189 39.1968 133.365C36.0588 136.834 32.9438 140.278 28.2285 141.976C32.2048 143.561 34.8191 142.971 37.2639 142.419C37.9402 142.266 38.6035 142.117 39.2791 142.017C43.8918 141.353 48.2075 139.79 52.5403 138.221C58.51 136.059 64.5125 133.885 71.3696 134.035C84.2156 134.294 97.4126 132.983 109.94 129.122C112.397 128.369 115.947 126.839 115.915 123.553C115.874 119.603 109.826 123.375 108.904 119.384C109.875 118.235 110.52 117.126 111.499 116.462C116.502 113.03 121.179 108.893 119.734 102.393C118.232 95.5776 111.858 95.6426 106.472 96.1443C103.312 96.4111 103.185 95.4517 102.93 93.5247C102.884 93.1724 102.833 92.7876 102.758 92.3723C99.7141 75.1953 81.3264 67.384 76.6582 50.9763C76.1929 49.333 73.8262 47.7141 71.9897 47.0667C64.6936 44.4924 64.5957 40.7202 69.0437 35.1997C71.3369 32.3342 72.5286 28.635 74.6179 25.5752C78.8618 19.3992 77.5559 16.6226 69.8599 16.8491C65.7437 16.9717 61.6274 16.9448 57.2041 16.9163C55.1899 16.9031 53.1121 16.8896 50.9417 16.8896C52.5168 10.665 56.8831 9.41846 59.5845 6.60962C61.9106 4.22168 63.6245 -0.740479 58.2542 0.0932617C56.0283 0.44458 53.6189 0.480957 51.1831 0.517578C43.5723 0.632324 35.7029 0.750977 32.3582 10.4949C31.9907 11.5391 31.6155 12.5186 31.2236 13.4253C28.3916 19.7148 24.3435 22.135 17.1045 17.6262C16.9495 17.3916 16.9412 17.1731 16.6555 16.9707C16.5903 16.9949 16.5168 17.0112 16.4514 17.0354C16.427 17.092 16.3862 17.1406 16.3618 17.1812L16.3372 17.1812ZM23.0825 2.5625C15.3701 4.60229 10.9221 8.66577 11.469 16.8818C6.30273 17.3857 7.80127 19.4697 9.18237 21.3904C9.39844 21.6907 9.61157 21.9871 9.7959 22.2729C10.4487 20.7996 11.8933 19.4722 12.9299 17.9341C14.0969 17.6345 15.2722 17.3188 16.4392 17.0276C17.135 15.5063 18.3311 14.2202 19.5442 12.9155C22.0171 10.2561 24.561 7.52051 23.0825 2.5625ZM9.79053 22.2727C10.427 23.2683 10.7617 24.1262 9.52124 24.5554C9.28442 23.6973 9.47217 22.9688 9.79053 22.2727ZM3.35815 76.3125C1.70947 76.0454 -0.16748 74.3293 0.0119629 71.8606C0.371094 67.3276 14.3025 58.0916 20.489 58.4558C28.4954 58.8928 28.8789 66.2996 32.0454 70.2417C31.7761 75.584 28.5198 78.6033 25.0186 78.6196C18.1433 78.7043 11.2163 77.5837 4.37158 76.4763C4.03345 76.4216 3.6958 76.3669 3.35815 76.3125Z" clip-rule="evenodd" fill="#C99B67" fill-opacity="1.000000" fill-rule="evenodd"/>
</svg>
